<svg width="50" height="50" viewBox="0 0 50 50" fill="none" xmlns="http://www.w3.org/2000/svg">
<style>
  path { fill: #284C4C; }
  @media (prefers-color-scheme: dark) { path { fill: #ffffff; } }
</style>
<path d="M18.1582 15.9165C17.9469 15.9462 17.819 15.8026 17.7745 15.4857C17.7226 15.116 17.8779 14.7845 18.2406 14.4912C18.5996 14.1715 19.0057 13.899 19.4587 13.6737C19.9382 13.4448 20.2949 13.3004 20.5288 13.2406L20.7269 13.2127C20.8853 13.1905 20.9683 13.2057 20.9757 13.2586C20.9905 13.3642 20.8335 13.5882 20.5047 13.9307L19.6598 14.8169C19.5162 14.9448 19.3726 15.0727 19.229 15.2005C19.0854 15.3284 18.9531 15.4413 18.8322 15.5391C18.5413 15.7684 18.3166 15.8943 18.1582 15.9165ZM10.4592 43.3349C8.84833 43.5613 7.48715 43.4563 6.37562 43.0201C5.2641 42.5839 4.63411 41.8377 4.48566 40.7814C4.38916 40.0948 4.53055 39.2805 4.90981 38.3386C5.29279 37.423 5.96645 36.3724 6.93081 35.1866C7.94057 33.9406 9.23666 32.816 10.8191 31.8126C12.4015 30.8093 14.0854 29.9533 15.8708 29.2446C17.66 28.5623 19.3826 28.0778 21.0389 27.7912C20.8529 26.6594 20.6215 25.5878 20.3447 24.5765C20.0906 23.5351 19.7258 22.2803 19.2502 20.8122C18.7768 21.6597 18.2336 22.5843 17.6204 23.586C17.0335 24.5841 16.5076 25.3447 16.0426 25.8678L16.003 25.8734C15.9765 25.8771 15.9446 25.8412 15.907 25.7657C15.8695 25.6902 15.8734 25.6223 15.9188 25.5621C16.5089 24.779 17.0614 23.9204 17.5765 22.9863C17.9021 22.4289 18.1635 21.894 18.3608 21.3815C18.5844 20.8654 18.6499 20.2772 18.5571 19.617C18.5385 19.485 18.5086 19.368 18.4674 19.2661C18.4488 19.1341 18.4171 19.0039 18.3721 18.8756L18.361 18.7963C18.3424 18.6643 18.354 18.555 18.3957 18.4683C18.4637 18.378 18.5337 18.3008 18.6055 18.2369C18.6773 18.1729 18.753 18.0411 18.8327 17.8414C18.9123 17.6417 18.9259 17.4513 18.8735 17.2702L18.8624 17.1909C18.8476 17.0853 18.8666 17.0288 18.9194 17.0214C19.0778 16.9991 19.2076 17.1559 19.3086 17.4918C19.3086 17.4918 19.4192 17.7994 19.6403 18.4146C19.8614 19.0298 20.1367 19.8394 20.4663 20.8433C20.7922 21.8207 21.1197 22.9057 21.4489 24.0982C21.7781 25.2906 22.0507 26.4641 22.2668 27.6186C22.9534 27.5221 23.6398 27.5199 24.3259 27.612C25.0121 27.704 25.4921 28.054 25.766 28.6618C25.7999 28.7109 25.8223 28.775 25.8335 28.8543C25.8595 29.0391 25.8083 29.154 25.68 29.199C25.578 29.2402 25.5197 29.208 25.5048 29.1024C25.5094 28.7517 25.3384 28.493 24.9918 28.3263C24.6489 28.1859 24.2324 28.0964 23.7422 28.0575C23.2558 28.0451 22.7994 28.0554 22.3732 28.0884C22.8574 30.7671 22.6804 33.1482 21.8422 35.2318C21.0304 37.3117 19.7085 39.0189 17.8764 40.3536C16.0481 41.7146 13.8643 42.6544 11.325 43.1728C11.193 43.1913 11.0478 43.2118 10.8893 43.234C10.7346 43.2827 10.5912 43.3163 10.4592 43.3349ZM9.83781 42.9375C10.2867 42.8744 10.7565 42.768 11.2471 42.6182C12.7981 42.1579 14.2215 41.4597 15.5171 40.5236C16.7864 39.5912 17.8675 38.4698 18.7605 37.1594C19.6836 35.8718 20.3486 34.4723 20.7556 32.9609C21.189 31.4459 21.3057 29.8811 21.1057 28.2665C19.5852 28.561 18.0474 29.0195 16.4922 29.642C14.937 30.2645 13.4702 31.0361 12.0916 31.957C10.713 32.8778 9.53013 33.9461 8.54308 35.162C7.48793 36.4682 6.75753 37.5942 6.35186 38.5398C5.92349 39.5156 5.75755 40.3468 5.85405 41.0334C5.96167 41.7992 6.37527 42.347 7.09483 42.6767C7.81438 43.0064 8.72871 43.0934 9.83781 42.9375ZM26.6092 26.362C26.3979 26.3917 26.1964 26.2989 26.0045 26.0835C25.8428 25.8908 25.7527 25.7284 25.7341 25.5964C25.7081 25.4115 25.7519 25.2438 25.8654 25.0932C25.9788 24.9426 26.1187 24.7883 26.285 24.6303C26.663 24.254 27.0104 24.0436 27.3273 23.9991C27.6442 23.9546 27.823 24.0775 27.8639 24.368C27.9195 24.7641 27.7091 25.2784 27.2325 25.9109C27.0282 26.182 26.8204 26.3324 26.6092 26.362ZM32.5505 29.1624C31.9959 29.2404 31.5419 29.0753 31.1883 28.6672C30.8347 28.2591 30.5511 27.7738 30.3374 27.2114C30.1539 26.6717 30.0078 26.2075 29.8994 25.8189C29.4509 25.6934 29.0797 25.5436 28.786 25.3694C28.5149 25.1652 28.3664 24.9706 28.3404 24.7858C28.3293 24.7065 28.3691 24.6067 28.4599 24.4862C28.5243 24.3695 28.6093 24.3037 28.7149 24.2888C28.9373 24.3383 29.2426 24.4031 29.6309 24.4832C30.0455 24.5596 30.4715 24.6209 30.9089 24.6671C31.3425 24.687 31.6895 24.6651 31.9499 24.6016C31.966 24.1416 31.9558 23.6852 31.9191 23.2326C31.9051 22.7498 31.8816 22.2954 31.8486 21.8691C31.8383 21.4128 31.8299 20.9696 31.8234 20.5397C31.8131 20.0834 31.8311 19.6365 31.8773 19.1992C32.0652 17.8532 32.4902 16.6625 33.1526 15.6269C33.8413 14.5876 34.9011 13.6981 36.3321 12.9584C36.7625 12.7633 37.1361 12.6435 37.453 12.5989C37.8491 12.5433 38.2167 12.5724 38.5559 12.6863C38.895 12.8002 39.1133 13.0119 39.2107 13.3213C39.2482 13.3969 39.2762 13.5006 39.2948 13.6327C39.369 14.1608 39.2301 14.7054 38.8781 15.2666C38.5488 15.7976 38.1329 16.2869 37.6303 16.7345C37.1541 17.1784 36.7177 17.5225 36.3212 17.7667C36.2985 17.7969 36.2816 17.7723 36.2705 17.6931C36.2857 17.6102 36.2934 17.5687 36.2934 17.5687C36.4935 17.4598 36.7693 17.219 37.1209 16.8465C37.4725 16.4739 37.7562 16.0975 37.972 15.717C38.2105 15.3065 38.3094 14.956 38.2686 14.6655C38.2166 14.2958 37.953 14.1444 37.4776 14.2112C37.2664 14.2409 37.0211 14.3158 36.7417 14.4358C35.8018 14.8372 34.9274 15.4179 34.1186 16.1778C33.3363 16.9341 32.8326 17.8531 32.6077 18.9349C32.5123 19.4061 32.4695 19.9642 32.4794 20.6091C32.5119 21.2239 32.5709 21.8349 32.6563 22.4423C32.7156 22.8648 32.7845 23.2591 32.8629 23.6251C32.9412 23.9911 33.0085 24.2778 33.0646 24.4854C33.2531 24.4858 33.4266 24.4749 33.5851 24.4526C33.7435 24.4303 33.902 24.4081 34.0604 24.3858C34.8526 24.2745 35.5904 24.0631 36.2737 23.7516C36.9797 23.41 37.6275 22.942 38.2172 22.3475C38.9013 21.6589 39.5255 20.8306 40.0896 19.8627C40.6801 18.891 41.1439 18.0719 41.4811 17.4051C41.5038 17.375 41.5415 17.3562 41.5944 17.3488C41.7264 17.3302 41.8054 17.4134 41.8314 17.5982C41.8351 17.6246 41.729 17.828 41.5132 18.2085C41.3238 18.5851 41.0663 19.0522 40.7407 19.6096C40.4415 20.1633 40.1027 20.7226 39.7243 21.2874C39.3686 21.8221 39.0282 22.2739 38.703 22.6427C37.9016 23.4555 37.0838 24.0551 36.2495 24.4417C35.4379 24.7981 34.7284 25.019 34.121 25.1044C33.9361 25.1303 33.7645 25.1545 33.6061 25.1767C33.4703 25.1689 33.3346 25.161 33.1988 25.1532C33.2058 25.3946 33.2239 25.7152 33.2532 26.115C33.2862 26.5412 33.2946 26.9843 33.2785 27.4444C33.2623 27.9044 33.1955 28.2908 33.0778 28.6036C32.9903 28.939 32.8146 29.1253 32.5505 29.1624ZM31.4341 27.542C31.751 27.4975 31.9439 27.2415 32.0129 26.774L32.0439 25.5579C31.8062 25.5913 31.5667 25.6115 31.3253 25.6184C31.084 25.6254 30.803 25.638 30.4824 25.6561C30.4819 25.8447 30.5286 26.0805 30.6222 26.3636C30.7158 26.6466 30.7851 26.8523 30.8301 26.9806C30.9687 27.392 31.17 27.5791 31.4341 27.542ZM42.4303 24.1385C42.219 24.1682 42.0174 24.0754 41.8256 23.86C41.6639 23.6673 41.5737 23.5049 41.5552 23.3729C41.5292 23.188 41.573 23.0203 41.6864 22.8697C41.7999 22.7191 41.9398 22.5648 42.1061 22.4068C42.4841 22.0305 42.8315 21.8201 43.1484 21.7756C43.4653 21.7311 43.6441 21.854 43.685 22.1445C43.7406 22.5406 43.5302 23.0549 43.0535 23.6874C42.8493 23.9585 42.6415 24.1088 42.4303 24.1385Z" />
</svg>
